<svg width="50" height="49" viewBox="0 0 50 49" fill="none" xmlns="http://www.w3.org/2000/svg">
<g clip-path="url(#clip0_1_727)">
<path opacity="0.085952" d="M49.2656 24.5C49.2656 10.969 38.2966 0 24.7656 0C11.2346 0 0.265625 10.969 0.265625 24.5C0.265625 38.031 11.2346 49 24.7656 49C38.2966 49 49.2656 38.031 49.2656 24.5Z" fill="white"/>
<path d="M29.2656 17.3334C29.2656 19.5425 27.4748 21.3334 25.2656 21.3334C23.0565 21.3334 21.2656 19.5425 21.2656 17.3334C21.2656 15.1242 23.0565 13.3334 25.2656 13.3334C27.4748 13.3334 29.2656 15.1242 29.2656 17.3334Z" fill="white"/>
<path d="M35.9323 20C35.9323 21.4728 34.7384 22.6667 33.2656 22.6667C31.7928 22.6667 30.599 21.4728 30.599 20C30.599 18.5273 31.7928 17.3334 33.2656 17.3334C34.7384 17.3334 35.9323 18.5273 35.9323 20Z" fill="white"/>
<path d="M30.599 29.3333C30.599 26.3879 28.2111 24 25.2656 24C22.3201 24 19.9323 26.3879 19.9323 29.3333V33.3333H30.599V29.3333Z" fill="white"/>
<path d="M19.9323 20C19.9323 21.4728 18.7384 22.6667 17.2656 22.6667C15.7929 22.6667 14.599 21.4728 14.599 20C14.599 18.5273 15.7929 17.3334 17.2656 17.3334C18.7384 17.3334 19.9323 18.5273 19.9323 20Z" fill="white"/>
<path d="M33.2656 33.3334V29.3334C33.2656 27.9279 32.9032 26.607 32.2666 25.4591C32.5859 25.377 32.9207 25.3334 33.2656 25.3334C35.4748 25.3334 37.2656 27.1242 37.2656 29.3334V33.3334H33.2656Z" fill="white"/>
<path d="M18.2646 25.4591C17.6281 26.607 17.2656 27.9279 17.2656 29.3334V33.3334H13.2656V29.3334C13.2656 27.1242 15.0565 25.3334 17.2656 25.3334C17.6106 25.3334 17.9453 25.377 18.2646 25.4591Z" fill="white"/>
</g>
<defs>
<clipPath id="clip0_1_727">
<rect width="49" height="49" fill="white" transform="translate(0.265625)"/>
</clipPath>
</defs>
</svg>
