<svg width="1" height="91" viewBox="0 0 1 91" fill="none" xmlns="http://www.w3.org/2000/svg">
<mask id="path-1-inside-1_16_75" fill="white">
<path d="M0 0H1V91H0V0Z"/>
</mask>
<path d="M-0.5 0V1.51667H0.5V0H-0.5ZM-0.5 3.53889V6.57222H0.5V3.53889H-0.5ZM-0.5 8.59444V11.6278H0.5V8.59444H-0.5ZM-0.5 13.65V16.6833H0.5V13.65H-0.5ZM-0.5 18.7056V21.7389H0.5V18.7056H-0.5ZM-0.5 23.7611V26.7944H0.5V23.7611H-0.5ZM-0.5 28.8167V31.85H0.5V28.8167H-0.5ZM-0.5 33.8722V36.9056H0.5V33.8722H-0.5ZM-0.5 38.9278V41.9611H0.5V38.9278H-0.5ZM-0.5 43.9833V47.0167H0.5V43.9833H-0.5ZM-0.5 49.0389V52.0722H0.5V49.0389H-0.5ZM-0.5 54.0944V57.1278H0.5V54.0944H-0.5ZM-0.5 59.15V62.1833H0.5V59.15H-0.5ZM-0.5 64.2055V67.2389H0.5V64.2055H-0.5ZM-0.5 69.2611V72.2944H0.5V69.2611H-0.5ZM-0.5 74.3167V77.35H0.5V74.3167H-0.5ZM-0.5 79.3722V82.4055H0.5V79.3722H-0.5ZM-0.5 84.4278V87.4611H0.5V84.4278H-0.5ZM-0.5 89.4833V91H0.5V89.4833H-0.5ZM-1 0V1.51667H1V0H-1ZM-1 3.53889V6.57222H1V3.53889H-1ZM-1 8.59444V11.6278H1V8.59444H-1ZM-1 13.65V16.6833H1V13.65H-1ZM-1 18.7056V21.7389H1V18.7056H-1ZM-1 23.7611V26.7944H1V23.7611H-1ZM-1 28.8167V31.85H1V28.8167H-1ZM-1 33.8722V36.9056H1V33.8722H-1ZM-1 38.9278V41.9611H1V38.9278H-1ZM-1 43.9833V47.0167H1V43.9833H-1ZM-1 49.0389V52.0722H1V49.0389H-1ZM-1 54.0944V57.1278H1V54.0944H-1ZM-1 59.15V62.1833H1V59.15H-1ZM-1 64.2055V67.2389H1V64.2055H-1ZM-1 69.2611V72.2944H1V69.2611H-1ZM-1 74.3167V77.35H1V74.3167H-1ZM-1 79.3722V82.4055H1V79.3722H-1ZM-1 84.4278V87.4611H1V84.4278H-1ZM-1 89.4833V91H1V89.4833H-1Z" fill="white" fill-opacity="0.5" mask="url(#path-1-inside-1_16_75)"/>
</svg>
