<svg width="2" height="326" viewBox="0 0 2 326" fill="none" xmlns="http://www.w3.org/2000/svg">
<mask id="path-1-inside-1_1_291" fill="white">
<path d="M0.265625 0.953125H1.26562V325.953H0.265625V0.953125Z"/>
</mask>
<path d="M-0.234375 0.953125V2.45312H0.765625V0.953125H-0.234375ZM-0.234375 4.45312V7.45312H0.765625V4.45312H-0.234375ZM-0.234375 9.45312V12.4531H0.765625V9.45312H-0.234375ZM-0.234375 14.4531V17.4531H0.765625V14.4531H-0.234375ZM-0.234375 19.4531V22.4531H0.765625V19.4531H-0.234375ZM-0.234375 24.4531V27.4531H0.765625V24.4531H-0.234375ZM-0.234375 29.4531V32.4531H0.765625V29.4531H-0.234375ZM-0.234375 34.4531V37.4531H0.765625V34.4531H-0.234375ZM-0.234375 39.4531V42.4531H0.765625V39.4531H-0.234375ZM-0.234375 44.4531V47.4531H0.765625V44.4531H-0.234375ZM-0.234375 49.4531V52.4531H0.765625V49.4531H-0.234375ZM-0.234375 54.4531V57.4531H0.765625V54.4531H-0.234375ZM-0.234375 59.4531V62.4531H0.765625V59.4531H-0.234375ZM-0.234375 64.4531V67.4531H0.765625V64.4531H-0.234375ZM-0.234375 69.4531V72.4531H0.765625V69.4531H-0.234375ZM-0.234375 74.4531V77.4531H0.765625V74.4531H-0.234375ZM-0.234375 79.4531V82.4531H0.765625V79.4531H-0.234375ZM-0.234375 84.4531V87.4531H0.765625V84.4531H-0.234375ZM-0.234375 89.4531V92.4531H0.765625V89.4531H-0.234375ZM-0.234375 94.4531V97.4531H0.765625V94.4531H-0.234375ZM-0.234375 99.4531V102.453H0.765625V99.4531H-0.234375ZM-0.234375 104.453V107.453H0.765625V104.453H-0.234375ZM-0.234375 109.453V112.453H0.765625V109.453H-0.234375ZM-0.234375 114.453V117.453H0.765625V114.453H-0.234375ZM-0.234375 119.453V122.453H0.765625V119.453H-0.234375ZM-0.234375 124.453V127.453H0.765625V124.453H-0.234375ZM-0.234375 129.453V132.453H0.765625V129.453H-0.234375ZM-0.234375 134.453V137.453H0.765625V134.453H-0.234375ZM-0.234375 139.453V142.453H0.765625V139.453H-0.234375ZM-0.234375 144.453V147.453H0.765625V144.453H-0.234375ZM-0.234375 149.453V152.453H0.765625V149.453H-0.234375ZM-0.234375 154.453V157.453H0.765625V154.453H-0.234375ZM-0.234375 159.453V162.453H0.765625V159.453H-0.234375ZM-0.234375 164.453V167.453H0.765625V164.453H-0.234375ZM-0.234375 169.453V172.453H0.765625V169.453H-0.234375ZM-0.234375 174.453V177.453H0.765625V174.453H-0.234375ZM-0.234375 179.453V182.453H0.765625V179.453H-0.234375ZM-0.234375 184.453V187.453H0.765625V184.453H-0.234375ZM-0.234375 189.453V192.453H0.765625V189.453H-0.234375ZM-0.234375 194.453V197.453H0.765625V194.453H-0.234375ZM-0.234375 199.453V202.453H0.765625V199.453H-0.234375ZM-0.234375 204.453V207.453H0.765625V204.453H-0.234375ZM-0.234375 209.453V212.453H0.765625V209.453H-0.234375ZM-0.234375 214.453V217.453H0.765625V214.453H-0.234375ZM-0.234375 219.453V222.453H0.765625V219.453H-0.234375ZM-0.234375 224.453V227.453H0.765625V224.453H-0.234375ZM-0.234375 229.453V232.453H0.765625V229.453H-0.234375ZM-0.234375 234.453V237.453H0.765625V234.453H-0.234375ZM-0.234375 239.453V242.453H0.765625V239.453H-0.234375ZM-0.234375 244.453V247.453H0.765625V244.453H-0.234375ZM-0.234375 249.453V252.453H0.765625V249.453H-0.234375ZM-0.234375 254.453V257.453H0.765625V254.453H-0.234375ZM-0.234375 259.453V262.453H0.765625V259.453H-0.234375ZM-0.234375 264.453V267.453H0.765625V264.453H-0.234375ZM-0.234375 269.453V272.453H0.765625V269.453H-0.234375ZM-0.234375 274.453V277.453H0.765625V274.453H-0.234375ZM-0.234375 279.453V282.453H0.765625V279.453H-0.234375ZM-0.234375 284.453V287.453H0.765625V284.453H-0.234375ZM-0.234375 289.453V292.453H0.765625V289.453H-0.234375ZM-0.234375 294.453V297.453H0.765625V294.453H-0.234375ZM-0.234375 299.453V302.453H0.765625V299.453H-0.234375ZM-0.234375 304.453V307.453H0.765625V304.453H-0.234375ZM-0.234375 309.453V312.453H0.765625V309.453H-0.234375ZM-0.234375 314.453V317.453H0.765625V314.453H-0.234375ZM-0.234375 319.453V322.453H0.765625V319.453H-0.234375ZM-0.234375 324.453V325.953H0.765625V324.453H-0.234375ZM-0.734375 0.953125V2.45312H1.26562V0.953125H-0.734375ZM-0.734375 4.45312V7.45312H1.26562V4.45312H-0.734375ZM-0.734375 9.45312V12.4531H1.26562V9.45312H-0.734375ZM-0.734375 14.4531V17.4531H1.26562V14.4531H-0.734375ZM-0.734375 19.4531V22.4531H1.26562V19.4531H-0.734375ZM-0.734375 24.4531V27.4531H1.26562V24.4531H-0.734375ZM-0.734375 29.4531V32.4531H1.26562V29.4531H-0.734375ZM-0.734375 34.4531V37.4531H1.26562V34.4531H-0.734375ZM-0.734375 39.4531V42.4531H1.26562V39.4531H-0.734375ZM-0.734375 44.4531V47.4531H1.26562V44.4531H-0.734375ZM-0.734375 49.4531V52.4531H1.26562V49.4531H-0.734375ZM-0.734375 54.4531V57.4531H1.26562V54.4531H-0.734375ZM-0.734375 59.4531V62.4531H1.26562V59.4531H-0.734375ZM-0.734375 64.4531V67.4531H1.26562V64.4531H-0.734375ZM-0.734375 69.4531V72.4531H1.26562V69.4531H-0.734375ZM-0.734375 74.4531V77.4531H1.26562V74.4531H-0.734375ZM-0.734375 79.4531V82.4531H1.26562V79.4531H-0.734375ZM-0.734375 84.4531V87.4531H1.26562V84.4531H-0.734375ZM-0.734375 89.4531V92.4531H1.26562V89.4531H-0.734375ZM-0.734375 94.4531V97.4531H1.26562V94.4531H-0.734375ZM-0.734375 99.4531V102.453H1.26562V99.4531H-0.734375ZM-0.734375 104.453V107.453H1.26562V104.453H-0.734375ZM-0.734375 109.453V112.453H1.26562V109.453H-0.734375ZM-0.734375 114.453V117.453H1.26562V114.453H-0.734375ZM-0.734375 119.453V122.453H1.26562V119.453H-0.734375ZM-0.734375 124.453V127.453H1.26562V124.453H-0.734375ZM-0.734375 129.453V132.453H1.26562V129.453H-0.734375ZM-0.734375 134.453V137.453H1.26562V134.453H-0.734375ZM-0.734375 139.453V142.453H1.26562V139.453H-0.734375ZM-0.734375 144.453V147.453H1.26562V144.453H-0.734375ZM-0.734375 149.453V152.453H1.26562V149.453H-0.734375ZM-0.734375 154.453V157.453H1.26562V154.453H-0.734375ZM-0.734375 159.453V162.453H1.26562V159.453H-0.734375ZM-0.734375 164.453V167.453H1.26562V164.453H-0.734375ZM-0.734375 169.453V172.453H1.26562V169.453H-0.734375ZM-0.734375 174.453V177.453H1.26562V174.453H-0.734375ZM-0.734375 179.453V182.453H1.26562V179.453H-0.734375ZM-0.734375 184.453V187.453H1.26562V184.453H-0.734375ZM-0.734375 189.453V192.453H1.26562V189.453H-0.734375ZM-0.734375 194.453V197.453H1.26562V194.453H-0.734375ZM-0.734375 199.453V202.453H1.26562V199.453H-0.734375ZM-0.734375 204.453V207.453H1.26562V204.453H-0.734375ZM-0.734375 209.453V212.453H1.26562V209.453H-0.734375ZM-0.734375 214.453V217.453H1.26562V214.453H-0.734375ZM-0.734375 219.453V222.453H1.26562V219.453H-0.734375ZM-0.734375 224.453V227.453H1.26562V224.453H-0.734375ZM-0.734375 229.453V232.453H1.26562V229.453H-0.734375ZM-0.734375 234.453V237.453H1.26562V234.453H-0.734375ZM-0.734375 239.453V242.453H1.26562V239.453H-0.734375ZM-0.734375 244.453V247.453H1.26562V244.453H-0.734375ZM-0.734375 249.453V252.453H1.26562V249.453H-0.734375ZM-0.734375 254.453V257.453H1.26562V254.453H-0.734375ZM-0.734375 259.453V262.453H1.26562V259.453H-0.734375ZM-0.734375 264.453V267.453H1.26562V264.453H-0.734375ZM-0.734375 269.453V272.453H1.26562V269.453H-0.734375ZM-0.734375 274.453V277.453H1.26562V274.453H-0.734375ZM-0.734375 279.453V282.453H1.26562V279.453H-0.734375ZM-0.734375 284.453V287.453H1.26562V284.453H-0.734375ZM-0.734375 289.453V292.453H1.26562V289.453H-0.734375ZM-0.734375 294.453V297.453H1.26562V294.453H-0.734375ZM-0.734375 299.453V302.453H1.26562V299.453H-0.734375ZM-0.734375 304.453V307.453H1.26562V304.453H-0.734375ZM-0.734375 309.453V312.453H1.26562V309.453H-0.734375ZM-0.734375 314.453V317.453H1.26562V314.453H-0.734375ZM-0.734375 319.453V322.453H1.26562V319.453H-0.734375ZM-0.734375 324.453V325.953H1.26562V324.453H-0.734375Z" fill="white" fill-opacity="0.5" mask="url(#path-1-inside-1_1_291)"/>
</svg>
