<svg width="250" height="35" viewBox="0 0 250 35" fill="none" xmlns="http://www.w3.org/2000/svg">
<path d="M42.2683 2.29403V0.772727H49.4359V2.29403H46.764V9.5H44.9402V2.29403H42.2683ZM52.6163 9.5V0.772727H56.0595C56.7186 0.772727 57.2811 0.890625 57.747 1.12642C58.2157 1.35937 58.5723 1.69034 58.8166 2.11932C59.0638 2.54545 59.1873 3.04687 59.1873 3.62358C59.1873 4.20312 59.0623 4.7017 58.8123 5.11932C58.5623 5.53409 58.2001 5.85227 57.7257 6.07386C57.2541 6.29545 56.6831 6.40625 56.0126 6.40625H53.7072V4.9233H55.7143C56.0666 4.9233 56.3592 4.875 56.5922 4.77841C56.8251 4.68182 56.9984 4.53693 57.112 4.34375C57.2285 4.15057 57.2868 3.91051 57.2868 3.62358C57.2868 3.33381 57.2285 3.08949 57.112 2.89062C56.9984 2.69176 56.8237 2.54119 56.5879 2.43892C56.3549 2.33381 56.0609 2.28125 55.7058 2.28125H54.4615V9.5H52.6163ZM57.3294 5.52841L59.4984 9.5H57.4615L55.3393 5.52841H57.3294ZM64.3365 0.772727V9.5H62.4913V0.772727H64.3365ZM72.589 3.28267C72.5549 2.93892 72.4086 2.67187 72.15 2.48153C71.8915 2.29119 71.5407 2.19602 71.0975 2.19602C70.7964 2.19602 70.5421 2.23864 70.3347 2.32386C70.1273 2.40625 69.9682 2.52131 69.8574 2.66903C69.7495 2.81676 69.6955 2.98438 69.6955 3.17188C69.6898 3.32812 69.7225 3.46449 69.7935 3.58097C69.8674 3.69744 69.9682 3.7983 70.0961 3.88352C70.2239 3.96591 70.3716 4.03835 70.5393 4.10085C70.7069 4.16051 70.8858 4.21165 71.0762 4.25426L71.8603 4.44176C72.241 4.52699 72.5904 4.64062 72.9086 4.78267C73.2268 4.92472 73.5023 5.09943 73.7353 5.30682C73.9682 5.5142 74.1486 5.75852 74.2765 6.03977C74.4071 6.32102 74.4739 6.64347 74.4768 7.0071C74.4739 7.54119 74.3375 8.00426 74.0677 8.39631C73.8006 8.78551 73.4143 9.08807 72.9086 9.30398C72.4057 9.51705 71.7992 9.62358 71.089 9.62358C70.3844 9.62358 69.7708 9.51562 69.2481 9.29972C68.7282 9.08381 68.3219 8.7642 68.0293 8.34091C67.7395 7.91477 67.5875 7.38778 67.5733 6.75994H69.3589C69.3787 7.05256 69.4625 7.29687 69.6103 7.4929C69.7608 7.68608 69.9611 7.83239 70.2111 7.93182C70.464 8.02841 70.7495 8.0767 71.0677 8.0767C71.3802 8.0767 71.6515 8.03125 71.8816 7.94034C72.1145 7.84943 72.2949 7.72301 72.4228 7.56108C72.5506 7.39915 72.6145 7.21307 72.6145 7.00284C72.6145 6.80682 72.5563 6.64205 72.4398 6.50852C72.3262 6.375 72.1586 6.26136 71.937 6.16761C71.7182 6.07386 71.4498 5.98864 71.1316 5.91193L70.1813 5.6733C69.4455 5.49432 68.8645 5.21449 68.4384 4.83381C68.0123 4.45312 67.8006 3.94034 67.8035 3.29545C67.8006 2.76705 67.9412 2.3054 68.2253 1.91051C68.5123 1.51562 68.9057 1.20739 69.4057 0.985795C69.9057 0.764204 70.4739 0.653409 71.1103 0.653409C71.758 0.653409 72.3233 0.764204 72.8063 0.985795C73.2921 1.20739 73.6699 1.51562 73.9398 1.91051C74.2097 2.3054 74.3489 2.76278 74.3574 3.28267H72.589ZM77.7179 9.5V0.772727H79.563V4.37358H83.3088V0.772727H85.1497V9.5H83.3088V5.89489H79.563V9.5H77.7179ZM90.1753 9.5H88.198L91.2108 0.772727H93.5886L96.5971 9.5H94.6199L92.4338 2.76705H92.3656L90.1753 9.5ZM90.0517 6.0696H94.7221V7.50994H90.0517V6.0696ZM99.6476 9.5V0.772727H103.142C103.784 0.772727 104.319 0.867898 104.748 1.05824C105.177 1.24858 105.5 1.51278 105.716 1.85085C105.932 2.18608 106.04 2.57244 106.04 3.00994C106.04 3.35085 105.971 3.65057 105.835 3.90909C105.699 4.16477 105.511 4.375 105.273 4.53977C105.037 4.7017 104.767 4.81676 104.463 4.88494V4.97017C104.795 4.98437 105.106 5.07812 105.396 5.25142C105.689 5.42472 105.926 5.66761 106.108 5.98011C106.29 6.28977 106.381 6.65909 106.381 7.08807C106.381 7.55114 106.265 7.96449 106.035 8.32812C105.808 8.68892 105.471 8.97443 105.025 9.18466C104.579 9.39489 104.03 9.5 103.376 9.5H99.6476ZM101.493 7.99148H102.997C103.511 7.99148 103.886 7.89347 104.122 7.69744C104.358 7.49858 104.476 7.23437 104.476 6.90483C104.476 6.66335 104.417 6.45028 104.301 6.26562C104.184 6.08097 104.018 5.93608 103.802 5.83097C103.589 5.72585 103.335 5.6733 103.04 5.6733H101.493V7.99148ZM101.493 4.42472H102.861C103.113 4.42472 103.338 4.38068 103.534 4.29261C103.733 4.2017 103.889 4.07386 104.003 3.90909C104.119 3.74432 104.177 3.54688 104.177 3.31676C104.177 3.00142 104.065 2.74716 103.841 2.55398C103.619 2.3608 103.304 2.2642 102.895 2.2642H101.493V4.42472ZM109.581 9.5V0.772727H111.426V4.37358H115.172V0.772727H117.013V9.5H115.172V5.89489H111.426V9.5H109.581ZM126.888 0.772727L128.998 7.40341H129.079L131.192 0.772727H133.238L130.229 9.5H127.851L124.839 0.772727H126.888ZM136.632 9.5H134.655L137.668 0.772727H140.046L143.054 9.5H141.077L138.891 2.76705H138.823L136.632 9.5ZM136.509 6.0696H141.179V7.50994H136.509V6.0696ZM144.706 2.29403V0.772727H151.873V2.29403H149.202V9.5H147.378V2.29403H144.706ZM159.788 3.28267C159.754 2.93892 159.608 2.67187 159.349 2.48153C159.091 2.29119 158.74 2.19602 158.297 2.19602C157.996 2.19602 157.741 2.23864 157.534 2.32386C157.327 2.40625 157.167 2.52131 157.057 2.66903C156.949 2.81676 156.895 2.98438 156.895 3.17188C156.889 3.32812 156.922 3.46449 156.993 3.58097C157.067 3.69744 157.167 3.7983 157.295 3.88352C157.423 3.96591 157.571 4.03835 157.738 4.10085C157.906 4.16051 158.085 4.21165 158.275 4.25426L159.059 4.44176C159.44 4.52699 159.79 4.64062 160.108 4.78267C160.426 4.92472 160.702 5.09943 160.934 5.30682C161.167 5.5142 161.348 5.75852 161.476 6.03977C161.606 6.32102 161.673 6.64347 161.676 7.0071C161.673 7.54119 161.537 8.00426 161.267 8.39631C161 8.78551 160.613 9.08807 160.108 9.30398C159.605 9.51705 158.998 9.62358 158.288 9.62358C157.584 9.62358 156.97 9.51562 156.447 9.29972C155.927 9.08381 155.521 8.7642 155.229 8.34091C154.939 7.91477 154.787 7.38778 154.773 6.75994H156.558C156.578 7.05256 156.662 7.29687 156.809 7.4929C156.96 7.68608 157.16 7.83239 157.41 7.93182C157.663 8.02841 157.949 8.0767 158.267 8.0767C158.579 8.0767 158.851 8.03125 159.081 7.94034C159.314 7.84943 159.494 7.72301 159.622 7.56108C159.75 7.39915 159.814 7.21307 159.814 7.00284C159.814 6.80682 159.756 6.64205 159.639 6.50852C159.525 6.375 159.358 6.26136 159.136 6.16761C158.917 6.07386 158.649 5.98864 158.331 5.91193L157.381 5.6733C156.645 5.49432 156.064 5.21449 155.638 4.83381C155.211 4.45312 155 3.94034 155.003 3.29545C155 2.76705 155.14 2.3054 155.425 1.91051C155.711 1.51562 156.105 1.20739 156.605 0.985795C157.105 0.764204 157.673 0.653409 158.309 0.653409C158.957 0.653409 159.523 0.764204 160.006 0.985795C160.491 1.20739 160.869 1.51562 161.139 1.91051C161.409 2.3054 161.548 2.76278 161.557 3.28267H159.788Z" fill="white"/>
<path d="M41.8209 28.5V19.7727H44.7697C45.4544 19.7727 46.014 19.8963 46.4487 20.1435C46.8862 20.3878 47.2101 20.7188 47.4203 21.1364C47.6305 21.554 47.7356 22.0199 47.7356 22.5341C47.7356 23.0483 47.6305 23.5156 47.4203 23.9361C47.2129 24.3565 46.8919 24.6918 46.4572 24.9418C46.0226 25.1889 45.4657 25.3125 44.7868 25.3125H42.6731V24.375H44.7527C45.2214 24.375 45.5978 24.294 45.8819 24.1321C46.166 23.9702 46.372 23.7514 46.4998 23.4759C46.6305 23.1974 46.6959 22.8835 46.6959 22.5341C46.6959 22.1847 46.6305 21.8722 46.4998 21.5966C46.372 21.321 46.1646 21.1051 45.8777 20.9489C45.5907 20.7898 45.2101 20.7102 44.7356 20.7102H42.8777V28.5H41.8209ZM49.3017 28.5V21.9545H50.2733V22.9432H50.3415C50.4608 22.6193 50.6767 22.3565 50.9892 22.1548C51.3017 21.9531 51.654 21.8523 52.046 21.8523C52.1199 21.8523 52.2122 21.8537 52.323 21.8565C52.4338 21.8594 52.5176 21.8636 52.5744 21.8693V22.892C52.5403 22.8835 52.4622 22.8707 52.34 22.8537C52.2207 22.8338 52.0943 22.8239 51.9608 22.8239C51.6426 22.8239 51.3585 22.8906 51.1085 23.0241C50.8613 23.1548 50.6653 23.3366 50.5204 23.5696C50.3784 23.7997 50.3074 24.0625 50.3074 24.358V28.5H49.3017ZM56.2264 28.6364C55.6355 28.6364 55.117 28.4957 54.671 28.2145C54.2278 27.9332 53.8812 27.5398 53.6312 27.0341C53.3841 26.5284 53.2605 25.9375 53.2605 25.2614C53.2605 24.5795 53.3841 23.9844 53.6312 23.4759C53.8812 22.9673 54.2278 22.5724 54.671 22.2912C55.117 22.0099 55.6355 21.8693 56.2264 21.8693C56.8173 21.8693 57.3344 22.0099 57.7775 22.2912C58.2236 22.5724 58.5701 22.9673 58.8173 23.4759C59.0673 23.9844 59.1923 24.5795 59.1923 25.2614C59.1923 25.9375 59.0673 26.5284 58.8173 27.0341C58.5701 27.5398 58.2236 27.9332 57.7775 28.2145C57.3344 28.4957 56.8173 28.6364 56.2264 28.6364ZM56.2264 27.733C56.6753 27.733 57.0446 27.6179 57.3344 27.3878C57.6241 27.1577 57.8386 26.8551 57.9778 26.4801C58.117 26.1051 58.1866 25.6989 58.1866 25.2614C58.1866 24.8239 58.117 24.4162 57.9778 24.0384C57.8386 23.6605 57.6241 23.3551 57.3344 23.1222C57.0446 22.8892 56.6753 22.7727 56.2264 22.7727C55.7775 22.7727 55.4082 22.8892 55.1184 23.1222C54.8287 23.3551 54.6142 23.6605 54.475 24.0384C54.3358 24.4162 54.2662 24.8239 54.2662 25.2614C54.2662 25.6989 54.3358 26.1051 54.475 26.4801C54.6142 26.8551 54.8287 27.1577 55.1184 27.3878C55.4082 27.6179 55.7775 27.733 56.2264 27.733ZM63.1991 28.6364C62.6536 28.6364 62.1721 28.4986 61.7545 28.223C61.3368 27.9446 61.0101 27.5526 60.7743 27.0469C60.5385 26.5384 60.4206 25.9375 60.4206 25.2443C60.4206 24.5568 60.5385 23.9602 60.7743 23.4545C61.0101 22.9489 61.3383 22.5582 61.7587 22.2827C62.1792 22.0071 62.665 21.8693 63.2161 21.8693C63.6422 21.8693 63.9789 21.9403 64.226 22.0824C64.476 22.2216 64.6664 22.3807 64.7971 22.5597C64.9306 22.7358 65.0343 22.8807 65.1081 22.9943H65.1934V19.7727H66.1991V28.5H65.2275V27.4943H65.1081C65.0343 27.6136 64.9292 27.7642 64.7928 27.946C64.6564 28.125 64.4618 28.2855 64.209 28.4276C63.9562 28.5668 63.6195 28.6364 63.1991 28.6364ZM63.3354 27.733C63.7388 27.733 64.0797 27.6278 64.3581 27.4176C64.6366 27.2045 64.8482 26.9105 64.9931 26.5355C65.138 26.1577 65.2104 25.7216 65.2104 25.2273C65.2104 24.7386 65.1394 24.3111 64.9973 23.9446C64.8553 23.5753 64.6451 23.2884 64.3667 23.0838C64.0883 22.8764 63.7445 22.7727 63.3354 22.7727C62.9093 22.7727 62.5542 22.8821 62.2701 23.1009C61.9888 23.3168 61.7772 23.6108 61.6351 23.983C61.4959 24.3523 61.4263 24.767 61.4263 25.2273C61.4263 25.6932 61.4973 26.1165 61.6394 26.4972C61.7843 26.875 61.9973 27.1761 62.2786 27.4006C62.5627 27.6222 62.915 27.733 63.3354 27.733ZM72.3056 25.8239V21.9545H73.3113V28.5H72.3056V27.392H72.2374C72.084 27.7244 71.8454 28.0071 71.5215 28.2401C71.1976 28.4702 70.7885 28.5852 70.2942 28.5852C69.8851 28.5852 69.5215 28.4957 69.2033 28.3168C68.8851 28.1349 68.6351 27.8622 68.4533 27.4986C68.2715 27.1321 68.1806 26.6705 68.1806 26.1136V21.9545H69.1863V26.0455C69.1863 26.5227 69.3198 26.9034 69.5868 27.1875C69.8567 27.4716 70.2005 27.6136 70.6181 27.6136C70.8681 27.6136 71.1223 27.5497 71.3809 27.4219C71.6422 27.294 71.861 27.098 72.0371 26.8338C72.2161 26.5696 72.3056 26.233 72.3056 25.8239ZM77.8123 28.6364C77.1987 28.6364 76.6703 28.4915 76.2271 28.2017C75.7839 27.9119 75.443 27.5128 75.2044 27.0043C74.9657 26.4957 74.8464 25.9148 74.8464 25.2614C74.8464 24.5966 74.9686 24.0099 75.2129 23.5014C75.4601 22.9901 75.8038 22.5909 76.2442 22.304C76.6873 22.0142 77.2044 21.8693 77.7953 21.8693C78.2555 21.8693 78.6703 21.9545 79.0396 22.125C79.4089 22.2955 79.7115 22.5341 79.9473 22.8409C80.1831 23.1477 80.3294 23.5057 80.3862 23.9148H79.3805C79.3038 23.6165 79.1334 23.3523 78.8692 23.1222C78.6078 22.8892 78.2555 22.7727 77.8123 22.7727C77.4203 22.7727 77.0765 22.875 76.7811 23.0795C76.4885 23.2812 76.2598 23.5668 76.095 23.9361C75.9331 24.3026 75.8521 24.733 75.8521 25.2273C75.8521 25.733 75.9317 26.1733 76.0907 26.5483C76.2527 26.9233 76.4799 27.2145 76.7726 27.4219C77.068 27.6293 77.4146 27.733 77.8123 27.733C78.0737 27.733 78.3109 27.6875 78.524 27.5966C78.737 27.5057 78.9174 27.375 79.0652 27.2045C79.2129 27.0341 79.318 26.8295 79.3805 26.5909H80.3862C80.3294 26.9773 80.1888 27.3253 79.9643 27.6349C79.7427 27.9418 79.4487 28.1861 79.0822 28.3679C78.7186 28.5469 78.2953 28.6364 77.8123 28.6364ZM84.703 21.9545V22.8068H81.3109V21.9545H84.703ZM82.2995 20.3864H83.3052V26.625C83.3052 26.9091 83.3464 27.1222 83.4288 27.2642C83.514 27.4034 83.622 27.4972 83.7527 27.5455C83.8862 27.5909 84.0268 27.6136 84.1745 27.6136C84.2853 27.6136 84.3763 27.608 84.4473 27.5966C84.5183 27.5824 84.5751 27.571 84.6177 27.5625L84.8223 28.4659C84.7541 28.4915 84.6589 28.517 84.5368 28.5426C84.4146 28.571 84.2598 28.5852 84.0723 28.5852C83.7882 28.5852 83.5098 28.5241 83.237 28.402C82.9672 28.2798 82.7427 28.0938 82.5638 27.8438C82.3876 27.5938 82.2995 27.2784 82.2995 26.8977V20.3864ZM92.4203 28.5H89.7271V19.7727H92.5396C93.3862 19.7727 94.1106 19.9474 94.7129 20.2969C95.3152 20.6435 95.7768 21.142 96.0978 21.7926C96.4189 22.4403 96.5794 23.2159 96.5794 24.1193C96.5794 25.0284 96.4174 25.8111 96.0936 26.4673C95.7697 27.1207 95.2981 27.6236 94.6788 27.9759C94.0595 28.3253 93.3067 28.5 92.4203 28.5ZM90.7839 27.5625H92.3521C93.0737 27.5625 93.6717 27.4233 94.1461 27.1449C94.6206 26.8665 94.9743 26.4702 95.2072 25.956C95.4402 25.4418 95.5567 24.8295 95.5567 24.1193C95.5567 23.4148 95.4416 22.8082 95.2115 22.2997C94.9814 21.7884 94.6376 21.3963 94.1802 21.1236C93.7228 20.848 93.1532 20.7102 92.4714 20.7102H90.7839V27.5625ZM100.96 28.6364C100.329 28.6364 99.7853 28.4972 99.328 28.2188C98.8734 27.9375 98.5226 27.5455 98.2754 27.0426C98.0311 26.5369 97.9089 25.9489 97.9089 25.2784C97.9089 24.608 98.0311 24.017 98.2754 23.5057C98.5226 22.9915 98.8663 22.5909 99.3067 22.304C99.7498 22.0142 100.267 21.8693 100.858 21.8693C101.199 21.8693 101.535 21.9261 101.868 22.0398C102.2 22.1534 102.503 22.3381 102.775 22.5938C103.048 22.8466 103.265 23.1818 103.427 23.5994C103.589 24.017 103.67 24.5312 103.67 25.142V25.5682H98.6248V24.6989H102.648C102.648 24.3295 102.574 24 102.426 23.7102C102.281 23.4205 102.074 23.1918 101.804 23.0241C101.537 22.8565 101.221 22.7727 100.858 22.7727C100.457 22.7727 100.111 22.8722 99.818 23.071C99.5282 23.267 99.3052 23.5227 99.149 23.8381C98.9927 24.1534 98.9146 24.4915 98.9146 24.8523V25.4318C98.9146 25.9261 98.9998 26.3452 99.1703 26.6889C99.3436 27.0298 99.5836 27.2898 99.8905 27.4688C100.197 27.6449 100.554 27.733 100.96 27.733C101.224 27.733 101.463 27.696 101.676 27.6222C101.892 27.5455 102.078 27.4318 102.234 27.2812C102.39 27.1278 102.511 26.9375 102.596 26.7102L103.568 26.983C103.466 27.3125 103.294 27.6023 103.052 27.8523C102.811 28.0994 102.513 28.2926 102.158 28.4318C101.802 28.5682 101.403 28.6364 100.96 28.6364ZM109.836 23.4205L108.933 23.6761C108.876 23.5256 108.792 23.3793 108.682 23.2372C108.574 23.0923 108.426 22.973 108.238 22.8793C108.051 22.7855 107.811 22.7386 107.518 22.7386C107.118 22.7386 106.784 22.831 106.517 23.0156C106.253 23.1974 106.121 23.429 106.121 23.7102C106.121 23.9602 106.211 24.1577 106.393 24.3026C106.575 24.4474 106.859 24.5682 107.246 24.6648L108.217 24.9034C108.802 25.0455 109.238 25.2628 109.525 25.5554C109.812 25.8452 109.956 26.2187 109.956 26.6761C109.956 27.0511 109.848 27.3864 109.632 27.6818C109.419 27.9773 109.121 28.2102 108.737 28.3807C108.354 28.5511 107.908 28.6364 107.399 28.6364C106.731 28.6364 106.179 28.4915 105.741 28.2017C105.304 27.9119 105.027 27.4886 104.91 26.9318L105.865 26.6932C105.956 27.0455 106.128 27.3097 106.381 27.4858C106.636 27.6619 106.97 27.75 107.382 27.75C107.851 27.75 108.223 27.6506 108.498 27.4517C108.777 27.25 108.916 27.0085 108.916 26.7273C108.916 26.5 108.836 26.3097 108.677 26.1562C108.518 26 108.274 25.8835 107.944 25.8068L106.854 25.5511C106.254 25.4091 105.814 25.1889 105.533 24.8906C105.254 24.5895 105.115 24.2131 105.115 23.7614C105.115 23.392 105.219 23.0653 105.426 22.7812C105.636 22.4972 105.922 22.2741 106.283 22.1122C106.646 21.9503 107.058 21.8693 107.518 21.8693C108.166 21.8693 108.675 22.0114 109.044 22.2955C109.416 22.5795 109.68 22.9545 109.836 23.4205ZM111.47 28.5V21.9545H112.475V28.5H111.47ZM111.981 20.8636C111.785 20.8636 111.616 20.7969 111.474 20.6634C111.335 20.5298 111.265 20.3693 111.265 20.1818C111.265 19.9943 111.335 19.8338 111.474 19.7003C111.616 19.5668 111.785 19.5 111.981 19.5C112.177 19.5 112.345 19.5668 112.484 19.7003C112.626 19.8338 112.697 19.9943 112.697 20.1818C112.697 20.3693 112.626 20.5298 112.484 20.6634C112.345 20.7969 112.177 20.8636 111.981 20.8636ZM116.959 31.0909C116.474 31.0909 116.056 31.0284 115.707 30.9034C115.357 30.7812 115.066 30.6193 114.833 30.4176C114.603 30.2188 114.42 30.0057 114.283 29.7784L115.084 29.2159C115.175 29.3352 115.29 29.4716 115.43 29.625C115.569 29.7812 115.759 29.9162 116.001 30.0298C116.245 30.1463 116.564 30.2045 116.959 30.2045C117.488 30.2045 117.924 30.0767 118.268 29.821C118.611 29.5653 118.783 29.1648 118.783 28.6193V27.2898H118.698C118.624 27.4091 118.519 27.5568 118.383 27.733C118.249 27.9062 118.056 28.0611 117.803 28.1974C117.553 28.331 117.215 28.3977 116.789 28.3977C116.26 28.3977 115.786 28.2727 115.366 28.0227C114.948 27.7727 114.617 27.4091 114.373 26.9318C114.131 26.4545 114.01 25.875 114.01 25.1932C114.01 24.5227 114.128 23.9389 114.364 23.4418C114.6 22.9418 114.928 22.5554 115.349 22.2827C115.769 22.0071 116.255 21.8693 116.806 21.8693C117.232 21.8693 117.57 21.9403 117.82 22.0824C118.073 22.2216 118.266 22.3807 118.4 22.5597C118.536 22.7358 118.641 22.8807 118.715 22.9943H118.817V21.9545H119.789V28.6875C119.789 29.25 119.661 29.7074 119.405 30.0597C119.153 30.4148 118.812 30.6747 118.383 30.8395C117.957 31.0071 117.482 31.0909 116.959 31.0909ZM116.925 27.4943C117.329 27.4943 117.67 27.402 117.948 27.2173C118.226 27.0327 118.438 26.767 118.583 26.4205C118.728 26.0739 118.8 25.6591 118.8 25.1761C118.8 24.7045 118.729 24.2884 118.587 23.9276C118.445 23.5668 118.235 23.2841 117.957 23.0795C117.678 22.875 117.334 22.7727 116.925 22.7727C116.499 22.7727 116.144 22.8807 115.86 23.0966C115.579 23.3125 115.367 23.6023 115.225 23.9659C115.086 24.3295 115.016 24.733 115.016 25.1761C115.016 25.6307 115.087 26.0327 115.229 26.3821C115.374 26.7287 115.587 27.0014 115.868 27.2003C116.153 27.3963 116.505 27.4943 116.925 27.4943ZM122.635 24.5625V28.5H121.63V21.9545H122.601V22.9773H122.687C122.84 22.6449 123.073 22.3778 123.385 22.1761C123.698 21.9716 124.101 21.8693 124.596 21.8693C125.039 21.8693 125.427 21.9602 125.759 22.142C126.091 22.321 126.35 22.5938 126.535 22.9602C126.719 23.3239 126.812 23.7841 126.812 24.3409V28.5H125.806V24.4091C125.806 23.8949 125.672 23.4943 125.405 23.2074C125.138 22.9176 124.772 22.7727 124.306 22.7727C123.985 22.7727 123.698 22.8423 123.445 22.9815C123.195 23.1207 122.998 23.3239 122.853 23.5909C122.708 23.858 122.635 24.1818 122.635 24.5625ZM131.394 28.6364C130.763 28.6364 130.219 28.4972 129.762 28.2188C129.307 27.9375 128.956 27.5455 128.709 27.0426C128.465 26.5369 128.343 25.9489 128.343 25.2784C128.343 24.608 128.465 24.017 128.709 23.5057C128.956 22.9915 129.3 22.5909 129.74 22.304C130.183 22.0142 130.7 21.8693 131.291 21.8693C131.632 21.8693 131.969 21.9261 132.301 22.0398C132.634 22.1534 132.936 22.3381 133.209 22.5938C133.482 22.8466 133.699 23.1818 133.861 23.5994C134.023 24.017 134.104 24.5312 134.104 25.142V25.5682H129.058V24.6989H133.081C133.081 24.3295 133.007 24 132.86 23.7102C132.715 23.4205 132.507 23.1918 132.237 23.0241C131.97 22.8565 131.655 22.7727 131.291 22.7727C130.891 22.7727 130.544 22.8722 130.252 23.071C129.962 23.267 129.739 23.5227 129.583 23.8381C129.426 24.1534 129.348 24.4915 129.348 24.8523V25.4318C129.348 25.9261 129.433 26.3452 129.604 26.6889C129.777 27.0298 130.017 27.2898 130.324 27.4688C130.631 27.6449 130.987 27.733 131.394 27.733C131.658 27.733 131.896 27.696 132.11 27.6222C132.325 27.5455 132.512 27.4318 132.668 27.2812C132.824 27.1278 132.945 26.9375 133.03 26.7102L134.002 26.983C133.899 27.3125 133.727 27.6023 133.486 27.8523C133.245 28.0994 132.946 28.2926 132.591 28.4318C132.236 28.5682 131.837 28.6364 131.394 28.6364ZM135.634 28.5V21.9545H136.605V22.9432H136.673C136.793 22.6193 137.009 22.3565 137.321 22.1548C137.634 21.9531 137.986 21.8523 138.378 21.8523C138.452 21.8523 138.544 21.8537 138.655 21.8565C138.766 21.8594 138.85 21.8636 138.906 21.8693V22.892C138.872 22.8835 138.794 22.8707 138.672 22.8537C138.553 22.8338 138.426 22.8239 138.293 22.8239C137.975 22.8239 137.691 22.8906 137.441 23.0241C137.193 23.1548 136.997 23.3366 136.852 23.5696C136.71 23.7997 136.639 24.0625 136.639 24.358V28.5H135.634Z" fill="white"/>
</svg>
