<svg width="40" height="40" viewBox="0 0 40 40" fill="none" xmlns="http://www.w3.org/2000/svg">
<g clip-path="url(#clip0_1_759)">
<path opacity="0.085952" d="M38.5781 20.4844C38.5781 9.99096 30.0715 1.48438 19.5781 1.48438C9.08471 1.48438 0.578125 9.99096 0.578125 20.4844C0.578125 30.9778 9.08471 39.4844 19.5781 39.4844C30.0715 39.4844 38.5781 30.9778 38.5781 20.4844Z" fill="white"/>
<path d="M13.0781 14.9844C13.0781 14.4321 13.5258 13.9844 14.0781 13.9844H26.0781C26.6304 13.9844 27.0781 14.4321 27.0781 14.9844V16.9844C27.0781 17.5367 26.6304 17.9844 26.0781 17.9844H14.0781C13.5258 17.9844 13.0781 17.5367 13.0781 16.9844V14.9844Z" fill="white"/>
<path d="M13.0781 20.9844C13.0781 20.4321 13.5258 19.9844 14.0781 19.9844H20.0781C20.6304 19.9844 21.0781 20.4321 21.0781 20.9844V26.9844C21.0781 27.5367 20.6304 27.9844 20.0781 27.9844H14.0781C13.5258 27.9844 13.0781 27.5367 13.0781 26.9844V20.9844Z" fill="white"/>
<path d="M24.0781 19.9844C23.5258 19.9844 23.0781 20.4321 23.0781 20.9844V26.9844C23.0781 27.5367 23.5258 27.9844 24.0781 27.9844H26.0781C26.6304 27.9844 27.0781 27.5367 27.0781 26.9844V20.9844C27.0781 20.4321 26.6304 19.9844 26.0781 19.9844H24.0781Z" fill="white"/>
</g>
<defs>
<clipPath id="clip0_1_759">
<rect width="39" height="39" fill="white" transform="translate(0.078125 0.984375)"/>
</clipPath>
</defs>
</svg>
