<svg width="40" height="40" viewBox="0 0 40 40" fill="none" xmlns="http://www.w3.org/2000/svg">
<g clip-path="url(#clip0_1_747)">
<path opacity="0.085952" d="M38.5781 20.4844C38.5781 9.99096 30.0715 1.48438 19.5781 1.48438C9.08471 1.48438 0.578125 9.99096 0.578125 20.4844C0.578125 30.9778 9.08471 39.4844 19.5781 39.4844C30.0715 39.4844 38.5781 30.9778 38.5781 20.4844Z" fill="white"/>
<path d="M19.0781 17.5543C19.8681 17.5543 20.5081 18.1943 20.5081 18.9843C20.5081 19.7743 19.8681 20.4143 19.0781 20.4143C18.2881 20.4143 17.6481 19.7743 17.6481 18.9843C17.6481 18.1943 18.2881 17.5543 19.0781 17.5543Z" fill="white"/>
<path d="M19.0781 11.9844C22.8281 11.9844 25.8781 14.9244 26.0581 18.6244L27.9781 21.1844C28.2281 21.5144 27.9881 21.9844 27.5781 21.9844H26.0781V24.9844C26.0781 26.0844 25.1781 26.9844 24.0781 26.9844H23.0781V29.9844H16.0781V25.3044C13.7181 24.1844 12.0781 21.7744 12.0781 18.9844C12.0781 15.1144 15.2081 11.9844 19.0781 11.9844ZM16.0781 18.9844C16.0781 19.1144 16.0881 19.2444 16.0981 19.3744L15.2681 20.0344C15.1881 20.0944 15.1681 20.1944 15.2181 20.2844L16.0181 21.6744C16.0681 21.7644 16.1781 21.7944 16.2581 21.7644L17.2481 21.3644C17.4581 21.5244 17.6781 21.6544 17.9181 21.7544L18.0781 22.8144C18.0881 22.9144 18.1781 22.9844 18.2781 22.9844H19.8781C19.9781 22.9844 20.0581 22.9144 20.0781 22.8144L20.2281 21.7544C20.4781 21.6544 20.6981 21.5244 20.9081 21.3644L21.8981 21.7644C21.9881 21.7944 22.0981 21.7644 22.1481 21.6744L22.9481 20.2844C22.9981 20.2044 22.9781 20.0944 22.8981 20.0344L22.0581 19.3744C22.0681 19.2444 22.0781 19.1144 22.0781 18.9844C22.0781 18.8544 22.0581 18.7144 22.0381 18.5944L22.8881 17.9344C22.9681 17.8744 22.9881 17.7744 22.9381 17.6744L22.1381 16.2944C22.0881 16.2044 21.9881 16.1744 21.8981 16.2044L20.8981 16.6044C20.6981 16.4544 20.4681 16.3144 20.2281 16.2144L20.0781 15.1544C20.0581 15.0544 19.9781 14.9844 19.8781 14.9844H18.2781C18.1781 14.9844 18.0981 15.0544 18.0781 15.1544L17.9281 16.2144C17.6881 16.3144 17.4681 16.4444 17.2581 16.6044L16.2581 16.2044C16.1681 16.1744 16.0581 16.2044 16.0181 16.2944L15.2181 17.6744C15.1681 17.7644 15.1881 17.8744 15.2681 17.9344L16.1181 18.5944C16.0881 18.7144 16.0781 18.8444 16.0781 18.9844Z" fill="white"/>
</g>
<defs>
<clipPath id="clip0_1_747">
<rect width="39" height="39" fill="white" transform="translate(0.078125 0.984375)"/>
</clipPath>
</defs>
</svg>
