<svg width="71" height="71" viewBox="0 0 71 71" fill="none" xmlns="http://www.w3.org/2000/svg">
<rect x="0.984375" y="0.8125" width="70" height="70" rx="35" fill="white" fill-opacity="0.09"/>
<g clip-path="url(#clip0_6_2063)">
<path d="M20.5 18.4375H50.5C50.9973 18.4375 51.4742 18.635 51.8258 18.9867C52.1775 19.3383 52.375 19.8152 52.375 20.3125V50.3125C52.375 50.8098 52.1775 51.2867 51.8258 51.6383C51.4742 51.99 50.9973 52.1875 50.5 52.1875H20.5C20.0027 52.1875 19.5258 51.99 19.1742 51.6383C18.8225 51.2867 18.625 50.8098 18.625 50.3125V20.3125C18.625 19.8152 18.8225 19.3383 19.1742 18.9867C19.5258 18.635 20.0027 18.4375 20.5 18.4375ZM22.375 22.1875V48.4375H48.625V22.1875H22.375ZM26.1025 39.1844L27.5462 33.0512H25.3075L25.9863 30.445H31.3637L29.2412 39.2013C29.1217 39.6418 29.055 40.095 29.0425 40.5512C29.0425 41.11 29.3069 41.275 29.7213 41.3706C29.9744 41.4306 31.9862 41.3894 33.0794 38.8581L34.4744 33.0512H32.2094L32.89 30.445H37.7275L37.1069 33.4038C37.9544 31.7538 39.6531 30.1881 41.3219 30.1881C43.1031 30.1881 44.5769 31.5081 44.5769 34.0412C44.5769 34.6881 44.4906 35.3931 44.2656 36.1881L43.36 39.5725C43.2778 39.8704 43.23 40.1768 43.2175 40.4856C43.2175 41.0744 43.4444 41.3669 43.8681 41.3669C44.2937 41.3669 44.8319 41.0444 45.4544 39.2481L46.6994 39.7488C45.9625 42.4281 44.6331 43.5456 42.9625 43.5456C41.0106 43.5456 40.0769 42.34 40.0769 40.69C40.0769 40.2213 40.1331 39.7188 40.2756 39.2181L41.2094 35.7437C41.3076 35.3994 41.355 35.0425 41.35 34.6844C41.35 33.5669 40.6994 32.8881 39.6531 32.8881C38.3219 32.8881 37.4444 33.8819 36.9925 35.7944L35.1812 43.3544H32.0125L32.5806 40.9788C31.6487 42.5725 30.355 43.5569 28.7594 43.5569C26.8356 43.5569 25.93 42.4037 25.93 40.6656C25.93 40.225 25.9862 39.685 26.0988 39.1844H26.1025ZM29.1719 28.9844C28.6124 28.9844 28.0759 28.7621 27.6803 28.3666C27.2847 27.971 27.0625 27.4344 27.0625 26.875C27.0625 26.3156 27.2847 25.779 27.6803 25.3834C28.0759 24.9879 28.6124 24.7656 29.1719 24.7656C29.7313 24.7656 30.2678 24.9879 30.6634 25.3834C31.059 25.779 31.2812 26.3156 31.2812 26.875C31.2812 27.4344 31.059 27.971 30.6634 28.3666C30.2678 28.7621 29.7313 28.9844 29.1719 28.9844Z" fill="#F8F8F8"/>
</g>
<defs>
<clipPath id="clip0_6_2063">
<rect width="70" height="70" fill="white" transform="translate(0.984375 0.8125)"/>
</clipPath>
</defs>
</svg>
