<svg width="71" height="71" viewBox="0 0 71 71" fill="none" xmlns="http://www.w3.org/2000/svg">
<rect x="0.141235" y="0.8125" width="70" height="70" rx="35" fill="white" fill-opacity="0.09"/>
<g clip-path="url(#clip0_6_2086)">
<path d="M34.4999 17.3958C24.6278 17.3958 16.5832 25.4404 16.5832 35.3125C16.5832 45.1846 24.6278 53.2291 34.4999 53.2291C44.3719 53.2291 52.4165 45.1846 52.4165 35.3125C52.4165 25.4404 44.3719 17.3958 34.4999 17.3958ZM18.3928 35.3125C18.3928 32.9833 18.8944 30.7616 19.7903 28.755L27.4765 49.8071C22.1015 47.1912 18.3928 41.6908 18.3928 35.3125ZM34.4999 51.4196C32.9232 51.4196 31.4003 51.1866 29.949 50.7566L34.7865 36.71L39.7315 50.2729C39.7674 50.3446 39.8032 50.4341 39.839 50.4879C38.1728 51.0971 36.3811 51.4196 34.4999 51.4196ZM36.7215 27.7516C37.689 27.6979 38.5669 27.5904 38.5669 27.5904C39.4269 27.4829 39.3374 26.2108 38.4594 26.2646C38.4594 26.2646 35.8436 26.4616 34.1594 26.4616C32.5828 26.4616 29.9132 26.2646 29.9132 26.2646C29.0532 26.2287 28.9457 27.5546 29.8236 27.6083C29.8236 27.6083 30.6478 27.7158 31.5078 27.7696L34.0161 34.6496L30.4865 45.2204L24.6278 27.7516C25.5953 27.7158 26.4732 27.6083 26.4732 27.6083C27.3332 27.5008 27.2436 26.2287 26.3657 26.2825C26.3657 26.2825 23.7499 26.4796 22.0657 26.4796C21.7611 26.4796 21.4028 26.4796 21.0265 26.4616C23.929 22.09 28.874 19.2054 34.4999 19.2054C38.6924 19.2054 42.5086 20.8 45.3753 23.4337C45.3036 23.4337 45.2319 23.4158 45.1603 23.4158C43.5836 23.4158 42.4549 24.7954 42.4549 26.2825C42.4549 27.6083 43.2253 28.7371 44.0315 30.0629C44.6407 31.1379 45.3574 32.5175 45.3574 34.5062C45.3574 35.8858 44.8199 37.4804 44.139 39.72L42.5265 45.095L36.7215 27.7516ZM48.6361 27.5904C50.6485 31.2734 51.1436 35.5966 50.0158 39.6392C48.888 43.6818 46.2265 47.1243 42.5982 49.2337L47.5253 35.0079C48.439 32.7146 48.7436 30.8691 48.7436 29.2387C48.7436 28.6475 48.7078 28.0921 48.6361 27.5904Z" fill="#F8F8F8"/>
</g>
<defs>
<clipPath id="clip0_6_2086">
<rect width="70" height="70" fill="white" transform="translate(0.141235 0.8125)"/>
</clipPath>
</defs>
</svg>
