<svg width="71" height="71" viewBox="0 0 71 71" fill="none" xmlns="http://www.w3.org/2000/svg">
<rect x="0.956253" y="0.8125" width="70" height="70" rx="35" fill="white" fill-opacity="0.09"/>
<path d="M48.5 56.6459H23.5C21.2898 56.6459 19.1702 55.7679 17.6074 54.2051C16.0446 52.6423 15.1666 50.5227 15.1666 48.3125V23.3125C15.1666 21.1024 16.0446 18.9828 17.6074 17.42C19.1702 15.8572 21.2898 14.9792 23.5 14.9792H48.5C50.7101 14.9792 52.8297 15.8572 54.3925 17.42C55.9553 18.9828 56.8333 21.1024 56.8333 23.3125V48.3125C56.8333 50.5227 55.9553 52.6423 54.3925 54.2051C52.8297 55.7679 50.7101 56.6459 48.5 56.6459ZM23.5 19.1459C22.3949 19.1459 21.3351 19.5848 20.5537 20.3662C19.7723 21.1476 19.3333 22.2075 19.3333 23.3125V48.3125C19.3333 49.4176 19.7723 50.4774 20.5537 51.2588C21.3351 52.0402 22.3949 52.4792 23.5 52.4792H48.5C49.605 52.4792 50.6648 52.0402 51.4462 51.2588C52.2276 50.4774 52.6666 49.4176 52.6666 48.3125V23.3125C52.6666 22.2075 52.2276 21.1476 51.4462 20.3662C50.6648 19.5848 49.605 19.1459 48.5 19.1459H23.5ZM43.8375 45.7625C42.9365 45.7988 42.0377 45.6513 41.1956 45.3289C40.3535 45.0066 39.5859 44.5162 38.9395 43.8875C37.5862 42.3446 36.8921 40.3325 37.0062 38.2834C36.9643 36.2918 37.6747 34.3576 38.9958 32.8667C39.6864 32.1366 40.5236 31.5607 41.4525 31.1769C42.3813 30.793 43.3808 30.61 44.3854 30.6396H44.8708V26.4729C44.8708 26.1479 45.1354 25.8834 45.4604 25.8813H48.2041C48.3564 25.8756 48.5053 25.9277 48.6208 26.0271C48.6772 26.0805 48.7215 26.1452 48.751 26.2171C48.7804 26.2889 48.7943 26.3662 48.7916 26.4438V42.4417C48.7812 42.9938 48.8104 43.5459 48.875 44.0938V44.1459C48.8782 44.2783 48.8371 44.4081 48.7583 44.5146C48.6903 44.5982 48.604 44.6652 48.5062 44.7104C47.0604 45.4006 45.4792 45.7607 43.877 45.7646L43.8375 45.7625ZM41.9291 35.1042L41.9187 35.1167C41.2589 35.9851 40.9269 37.0586 40.9812 38.1479C40.8957 39.283 41.2235 40.4106 41.9041 41.3229C42.4604 41.9354 43.2625 42.2688 44.0895 42.2271C44.3521 42.231 44.6143 42.2045 44.8708 42.1479V34.1292C44.6764 34.0876 44.478 34.0673 44.2791 34.0688C43.8346 34.0568 43.3931 34.1442 42.9865 34.3243C42.58 34.5045 42.2188 34.7731 41.9291 35.1104V35.1042ZM36.4687 45.5209H33.4458C33.2904 45.531 33.1357 45.4923 33.0035 45.4101C32.8712 45.3279 32.768 45.2064 32.7083 45.0625L32.2708 44.1459L32.2604 44.1229L31.8333 43.2709L31.7 42.9938C31.0354 41.6229 30.35 40.2104 29.6625 38.7563C28.7066 40.8742 27.7224 42.9792 26.7104 45.0709V45.0917L26.7 45.1104C26.6302 45.2273 26.533 45.3253 26.4166 45.3959C26.2984 45.4665 26.1627 45.5026 26.025 45.5H23.1687C23.0493 45.5059 22.9311 45.4727 22.8323 45.4054C22.7334 45.3381 22.6592 45.2404 22.6208 45.1271C22.5957 45.0408 22.5907 44.95 22.6063 44.8615C22.6218 44.773 22.6574 44.6893 22.7104 44.6167L27.3541 35.7396L22.8625 26.7521C22.802 26.6647 22.7676 26.5619 22.7632 26.4557C22.7588 26.3495 22.7845 26.2443 22.8375 26.1521C22.8884 26.0685 22.96 25.9995 23.0454 25.9517C23.1308 25.9039 23.2271 25.8789 23.325 25.8792H26.3125C26.4576 25.8714 26.602 25.9046 26.7291 25.975C26.8584 26.0539 26.958 26.1733 27.0125 26.3146C28.1291 28.6584 29.0708 30.6896 29.8937 32.4917C30.9166 30.2 32.0041 27.8709 32.7333 26.3271L32.7437 26.3042L32.7562 26.2834V26.2604C32.8084 26.1713 32.8737 26.0906 32.95 26.0209C33.0789 25.9133 33.2425 25.8563 33.4104 25.8604H36.2083C36.3153 25.8576 36.4208 25.8858 36.5121 25.9416C36.6034 25.9974 36.6766 26.0785 36.7229 26.175C36.7597 26.2634 36.7745 26.3595 36.7662 26.4549C36.7578 26.5503 36.7265 26.6422 36.675 26.7229L32.1812 35.4459L36.9354 44.6125C36.9854 44.6921 37.0168 44.782 37.0272 44.8754C37.0377 44.9688 37.027 45.0634 36.9958 45.1521C36.9565 45.26 36.8847 45.353 36.7903 45.4183C36.6959 45.4836 36.5835 45.518 36.4687 45.5167V45.5209Z" fill="#F8F8F8"/>
</svg>
