<svg width="71" height="71" viewBox="0 0 71 71" fill="none" xmlns="http://www.w3.org/2000/svg">
<rect x="0.326248" y="0.8125" width="70" height="70" rx="35" fill="white" fill-opacity="0.09"/>
<g clip-path="url(#clip0_6_2046)">
<path d="M34.3711 16.8125V31.0317H41.6351C45.5617 31.0317 48.7447 27.8486 48.7447 23.9221C48.7447 19.9956 45.5617 16.8125 41.6351 16.8125H34.3711ZM36.6998 28.7029V19.1412H41.6351C44.2755 19.1412 46.4159 21.2817 46.4159 23.9221C46.4159 26.5625 44.2755 28.7029 41.6351 28.7029H36.6998Z" fill="white"/>
<path d="M36.6999 31.0317V16.8125H29.4359C25.5093 16.8125 22.3262 19.9956 22.3262 23.9221C22.3262 27.8486 25.5093 31.0317 29.4359 31.0317H36.6999ZM34.371 19.1412V28.7029H29.4359C26.7955 28.7029 24.6551 26.5625 24.6551 23.9221L24.6557 23.843C24.6979 21.2392 26.8219 19.1412 29.4359 19.1412H34.371Z" fill="white"/>
<path d="M36.6999 42.9223V28.7031H29.4359C25.5093 28.7031 22.3262 31.8861 22.3262 35.8127C22.3262 39.7392 25.5093 42.9223 29.4359 42.9223H36.6999ZM34.371 31.0318V40.5935H29.4359C26.7955 40.5935 24.6551 38.453 24.6551 35.8127L24.6557 35.7336C24.6979 33.1297 26.8219 31.0318 29.4359 31.0318H34.371Z" fill="white"/>
<path d="M36.6999 47.6257V40.5933H29.4359C25.5093 40.5933 22.3262 43.7764 22.3262 47.7029C22.3262 51.5809 25.474 54.7487 29.357 54.8116L29.4648 54.8125C33.4485 54.8125 36.6999 51.5899 36.6999 47.6257ZM29.4359 42.9221H34.3711V47.6257C34.3711 50.2991 32.1669 52.4837 29.4742 52.4837L29.3853 52.483C26.778 52.4407 24.6551 50.3043 24.6551 47.7029C24.6551 45.0626 26.7955 42.9221 29.4359 42.9221Z" fill="white"/>
<path d="M41.6351 28.7031H41.4807C37.5542 28.7031 34.3711 31.8861 34.3711 35.8127C34.3711 39.7392 37.5542 42.9223 41.4807 42.9223H41.6351C45.5179 42.9223 48.6809 39.8072 48.7438 35.9299L48.7447 35.8221C48.7447 31.8861 45.5617 28.7031 41.6351 28.7031ZM41.4807 31.0319H41.6351C44.2755 31.0319 46.4159 33.1723 46.4159 35.8127L46.4152 35.9015C46.373 38.4986 44.246 40.5935 41.6351 40.5935H41.4807C38.8403 40.5935 36.6999 38.453 36.6999 35.8127C36.6999 33.1723 38.8403 31.0319 41.4807 31.0319Z" fill="white"/>
</g>
<defs>
<clipPath id="clip0_6_2046">
<rect width="70" height="70" fill="white" transform="translate(0.326248 0.8125)"/>
</clipPath>
</defs>
</svg>
