<svg width="71" height="71" viewBox="0 0 71 71" fill="none" xmlns="http://www.w3.org/2000/svg">
<rect x="0.015625" y="0.8125" width="70" height="70" rx="35" fill="white" fill-opacity="0.09"/>
<g clip-path="url(#clip0_6_2074)">
<g clip-path="url(#clip1_6_2074)">
<path d="M15 16.3137V55.3112H55V16.3137H15ZM16.6662 17.98H53.3325V53.6437H16.6662V17.98ZM25.495 25.4412C25.495 25.33 25.5212 25.2462 25.6637 25.2462C27.0909 25.1881 28.5192 25.1618 29.9475 25.1675C34.57 25.1675 36.575 27.7 36.575 30.9425C36.575 35.1737 33.515 36.9912 29.745 36.9912C29.1137 36.9912 28.8925 36.965 28.45 36.965V43.3712C28.45 43.5075 28.3975 43.56 28.2613 43.56H25.69C25.5463 43.56 25.495 43.5075 25.495 43.3712V25.4412ZM28.45 34.295C28.8413 34.3212 29.14 34.3212 29.8038 34.3212C31.75 34.3212 33.58 33.6375 33.58 30.995C33.58 28.8787 32.2775 27.805 30.045 27.805C29.3875 27.805 28.7563 27.8375 28.45 27.8637V34.295ZM39.1213 32.785C39.1213 32.59 39.1213 32.095 39.0363 31.1637C39.0363 31.0275 39.0562 30.995 39.1663 30.9425C41.1114 30.1941 43.1759 29.8036 45.26 29.79C45.3962 29.79 45.455 29.8162 45.455 29.9525V32.375C45.455 32.5112 45.41 32.5375 45.2725 32.5375C44.2109 32.4712 43.1457 32.5836 42.1213 32.87V43.3712C42.1213 43.5075 42.0625 43.56 41.9263 43.56H39.3088C39.1725 43.56 39.12 43.5075 39.12 43.3712L39.1213 32.785Z" fill="#F8F8F8"/>
</g>
</g>
<defs>
<clipPath id="clip0_6_2074">
<rect width="70" height="70" fill="white" transform="translate(0.015625 0.8125)"/>
</clipPath>
<clipPath id="clip1_6_2074">
<rect width="40" height="40" fill="white" transform="translate(15 15.8125)"/>
</clipPath>
</defs>
</svg>
