<svg width="71" height="71" viewBox="0 0 71 71" fill="none" xmlns="http://www.w3.org/2000/svg">
<rect x="0.631226" y="0.8125" width="70" height="70" rx="35" fill="white" fill-opacity="0.09"/>
<g clip-path="url(#clip0_6_2097)">
<path d="M19.6843 47.8125L21.5735 42.0082H30.7585L32.6477 47.8125H38.4148L29.6399 22.358H22.7046L13.9173 47.8125H19.6843ZM22.9407 37.8072L26.0728 28.1747H26.2717L29.4038 37.8072H22.9407Z" fill="white"/>
<path d="M50.0732 48.1854C54.7962 48.1854 57.978 45.886 58.7237 42.3437L53.8267 42.0206C53.2923 43.4748 51.9251 44.233 50.1602 44.233C47.5128 44.233 45.8349 42.4805 45.8349 39.6342V39.6218H58.8356V38.1676C58.8356 31.6797 54.908 28.473 49.8619 28.473C44.244 28.473 40.6023 32.4627 40.6023 38.354C40.6023 44.407 44.1943 48.1854 50.0732 48.1854ZM45.8349 36.3406C45.9468 34.1655 47.5998 32.4254 49.9489 32.4254C52.2482 32.4254 53.8391 34.0661 53.8516 36.3406H45.8349Z" fill="white"/>
</g>
<defs>
<clipPath id="clip0_6_2097">
<rect width="70" height="70" fill="white" transform="translate(0.631226 0.8125)"/>
</clipPath>
</defs>
</svg>
